<?xml version="1.0" encoding="utf-8"?>
<!-- Generator: Adobe Illustrator 19.1.0, SVG Export Plug-In . SVG Version: 6.00 Build 0)  -->
<svg version="1.1" id="Isolation_Mode" xmlns="http://www.w3.org/2000/svg" xmlns:xlink="http://www.w3.org/1999/xlink" x="0px"
	 y="0px" viewBox="0 0 181.3 223.4" style="enable-background:new 0 0 181.3 223.4;" xml:space="preserve">
<style type="text/css">
	.st0{fill:#089956}
</style>
<g>
	<g>
		<path class="st0" d="M127.3,81.7c1.9-2.5,3.5-5.2,4.8-7.7c3.3-6.8,4.3-13.1,1.7-15c-0.8-0.6-0.5,3.7-3.4,5.9c0.1-4.3,0.9-7.8,2-11
			c4.8-13.8,16.8-19.3,18.2-37.5l-10,1.5c-0.2,0-0.4,0-0.6,0c0,0,0,0,0,0c-0.8,6.3-10.3,17.5-19,18.6c-1.8-0.2-3.6,0-5.5,0.4
			c0.6,1.7,1,3.6,0.9,4.9c-2.7,0.1-4.3,1-5.2,2.2c-1.1,1.5-1.2,3.7-0.9,5.9c-2-1-5.4-0.2-6.7-1.2c-0.1,2.5-1.1,7-0.5,9.5
			c-2-1.4-6.7-7.4-6.7-12c0,0,0,0,0.1-0.1c-1.3,1-2.4,2.1-6.3,4.4c-3,2.2-5.1,4.8-6.4,7.5c-0.7,1.3-1.2,2.7-1.5,4.1
			c-0.4,1.5-0.6,3.1-0.6,4.8c0,1,0.1,1.9,0.2,2.9C82.9,78.5,89.5,85,97.5,85c7.7,0,14.1-6,15.7-14c0.2,1,0.4,2,0.4,3.1
			c0,7.8-7.3,14.2-16.3,14.2c-8.3,0-15.1-5.4-16.2-12.3c-1.3,0.9-1.5,1.2-2.1,1.8h0c-0.1,0.1-0.1,0.1-0.2,0.2c0,0,0,0,0,0
			c-8.7,9-15.1,18.9-10.2,32.9c-0.8,1.3-1.9,2.1-3.9,1.8c-2.5-1.3,0.4-5.5,0.1-8.4c-4-1.2-12.1-0.6-14.9,0.6c3-3.3,5.1-4.7,15-3
			C64.9,90.9,71.5,81.1,77.5,76c-8.1,3.6-13.7,11.7-15.1,20.3c-19.8-1.5-21.2,18-21.2,22.1c0,0.2,0,0.4,0,0.6
			c-0.1,1.1-0.1,2.3-0.1,3.4c0,6.7-6.5,32.1-6.5,40.8c5.3,2.5,4.5-24.7,8.9-28.3c1.1,10.9-0.9,25-2.3,37.6c5-1.4,10.9-2.6,17.4-3.5
			c-0.8-4.1-1.1-8.7-0.9-13.3c0-1.3,0.1-2.5,0.2-3.9c0.4-4.4,1.5-13,3.3-16.8c1.8-3.7,3.7-7.1,9.7-10.2c0.8-0.4,3.5-1.4,4.6-1.7
			c1.2-0.3,1.3,0.7,0.2,1.3c-1.1,0.6-0.6,0.3-3.6,1.6c-2.7,1.1-6.8,4.5-7.6,8.3c0,0,0,0,0,0c0.4-0.2,0.8-0.4,1.3-0.4
			c0.4,0,0.7,0,1.1,0.1c0,0,0,0,0,0c1.1,0.1,2.1,0.5,2.9,1c0,0,0,0,0.1,0c0.2,0.1,0.4,0.2,0.6,0.4c0,0,0,0,0.1,0.1
			c0.7,0.6,1.4,1.2,1.9,2.1c0,0.1,0.1,0.1,0.1,0.2c0.1,0.1,0.2,0.3,0.3,0.5c0.1,0.1,0.1,0.2,0.2,0.3c0.1,0.1,0.2,0.3,0.2,0.5
			c0.1,0.1,0.1,0.2,0.2,0.4c0.1,0.1,0.1,0.3,0.2,0.5c0.1,0.1,0.1,0.3,0.2,0.4c0.1,0.2,0.1,0.3,0.2,0.5c0,0.2,0.1,0.3,0.1,0.5
			c0.1,0.2,0.1,0.3,0.2,0.5c0.1,0.2,0.1,0.4,0.2,0.6c0.1,0.3,0.2,0.6,0.3,0.9c0,0.2,0.1,0.3,0.1,0.4c0,0.2,0.1,0.5,0.1,0.7
			c0,0.1,0,0.3,0.1,0.4c0.9,5,0.9,11.1,0.7,16.6c1.3-0.9,3.3-0.5,4.5,1c0.1,0.1,0.1,0.2,0.2,0.3c0.2-0.4,0.5-0.8,0.8-1.1
			c1.4-1.1,3.6-0.9,4.7,0.5c0.1,0.1,0.2,0.2,0.2,0.3c0.3-0.5,0.7-0.9,1.1-1.2c1.2-0.9,2.6-1.1,3.8-0.7c-2-5-2.4-10.3-1.7-15.4
			c0,0.2,0,0.4,0,0.6c0.5-4.1,1.6-8.1,3.2-11.7c1.3-3.2,1.4-7.4,0.8-10.1c-1.3-6.1-3.7-7.7-4.8-8.3c-1-0.6,0.2-1.8,1.5-1.5
			c1.2,0.3,3,2.3,5.3,6.3c3.4,5.9,4.8,20.4,4.8,27.6c0,1.8,0,6.4,0,8.3c-0.1,1.5-0.4,7.4-0.7,11.1c0.1,0,0.2,0,0.3,0
			c2.3,0.1,4.6,0.3,6.9,0.4c0,0,0.1,0,0.1,0c1.2,0.1,3.5,0.5,4.6,0.2c0.2-0.5-0.4-0.6-1-0.7c2.1-1,5.9,0.8,8.2,1.2
			c-0.3,0.3-0.4,0.4-0.7,0.5c0.1,0,0.2,0,0.3,0c0.9,0.1,1.8,0.3,2.7,0.4c-4.1-8.1-5.9-19.6-5.5-32.7c0,0,0,0,0,0c0-0.1,0-0.2,0-0.3
			c0-0.4,0-0.7,0.1-1.1c0.1-3.4,0.1-6.8,1.3-12.6c0.3-1.4,1.2-3.6,1.7-4.6c0.6-1.1,1.4-0.5,1.1,0.7c-0.3,1.2-0.4,1.3-1,4.5
			c-0.2,1-0.3,2.2-0.4,3.4c9.5,4.3,14.2,16.4,9.1,26.2c0.1,0,0.2,0,0.2,0c1.5,0,2.8,1.4,2.8,3.2c0,0.1,0,0.2,0,0.3
			c0.3-0.2,0.8-0.3,1.2-0.3c1.7,0,3,1.4,3,3c0,0.1,0,0.3,0,0.4c0.4-0.2,0.9-0.3,1.4-0.3c1.5,0,2.8,0.9,3.3,2.2
			c2.4-2.1,4.2-11.3,4.3-12.6C145.7,122.1,114.6,104.3,127.3,81.7z M120.2,57.9c-0.4,0.3-0.9,0.5-1.4,0.4c-0.9,0.1-1.8-0.3-2.5-1
			c-1-1.1-1-2.6,0.1-3.4c1.1-0.8,2.8-0.6,3.8,0.5c0.5,0.5,0.8,1.2,0.7,1.8C120.9,56.8,120.7,57.4,120.2,57.9z"/>
		<path class="st0" d="M75.7,162.2c-0.5,0.4-1,1.7-0.7,3.3c2,0.3,3.2-0.2,4.9,0c0.4-0.8,0.3-1.9-0.4-2.7
			C78.6,161.6,76.7,161.4,75.7,162.2z"/>
		<path class="st0" d="M82,162.5c-0.9,0.7-1.3,1.7-0.6,2.7l4,0.1c0.4-0.8,0.4-1.7-0.2-2.5C84.4,161.9,82.9,161.7,82,162.5z"/>
		<path class="st0" d="M87.9,162.2c-1,0.8-1.4,2-1.2,2.9c1.7-0.3,4.1,0.2,5.7-0.1c1.2,0-0.2-2.4-0.6-3
			C91,161.2,89.1,161.2,87.9,162.2z"/>
		<path class="st0" d="M127.6,153.7c-0.6,0-1,0.3-1.4,0.7c0.3,1.5,1.1,2.8,2.2,3.9c0.7-0.3,1.3-1.2,1.3-2.2
			C129.6,154.8,128.7,153.7,127.6,153.7z"/>
		<path class="st0" d="M131.4,157.3c-1.1,0-2,0.9-2,1.9l2.8,2c0.7-0.3,1.2-1,1.2-1.9C133.5,158.2,132.6,157.3,131.4,157.3z"/>
		<path class="st0" d="M135.8,160.4c-1.2,0-2.1,0.6-2.5,1.4c1.4,0.8,2.7,1.5,4,2.3c0,0,0,0,0,0c0.7-0.4,1.1-0.9,1.1-1.6
			C138.4,161.4,137.2,160.4,135.8,160.4z"/>
	</g>
	<path class="st0" d="M174.8,146.5c0,0.2-0.1,0.3-0.1,0.5c0,0,0,0.1,0,0.1C174.7,146.8,174.8,146.7,174.8,146.5z"/>
	<path class="st0" d="M110.4,167.3c0.5,0.1,1.2,0.2,1,0.7c-1.2,0.3-3.4-0.1-4.6-0.2c0.8,0.1,1,0.5,0.8,1.1c1.4,0.3,1,0.3,2.5,0.4
		c-0.1,0.7,0.5,0.6-0.1,1c1.6,0.2,2.1,0.3,4.3,0.6c0.6-1.1-1.9-0.6-1.2-1.7c-0.6-0.1-1.1-0.2-1.4-0.5c-0.5,0.7,0.5,0.7,0.6,1.1
		c-0.9,0.5-1.2-0.6-1.3-1.2c1.3-1,2.1,0.8,2.8-0.2c0.5,0.1,1,0.1,1.5,0.2c1.5,0.2,2.3,0.3,2.7,0.4c0.3-0.1,0.4-0.2,0.7-0.5
		C116.3,168.1,112.5,166.3,110.4,167.3z"/>
	<path class="st0" d="M141.1,207.9c0.1,0,0.3-0.1,0.4-0.2c-0.1-0.1-0.1-0.2-0.2-0.4C141.2,207.4,141.2,207.7,141.1,207.9z"/>
	<path class="st0" d="M145.5,174.7C145.5,174.7,145.4,174.7,145.5,174.7C145.4,174.7,145.5,174.7,145.5,174.7
		C145.5,174.7,145.5,174.7,145.5,174.7z"/>
	<path class="st0" d="M147.5,172.2C147.5,172.2,147.5,172.2,147.5,172.2C147.5,172.2,147.5,172.2,147.5,172.2L147.5,172.2z"/>
	<path class="st0" d="M150.5,16.4l2.2-0.3l2.4-0.4c-0.4,0-0.6,0-0.6,0s1.3-10.6-3-11.6c-0.8,0.1-1.6,0.3-2.4,0.3
		c-1,0.2-2.1,0.3-3.2,0.4l-4.7,0.7l-2.5,0.4c-0.2,0.1-0.5,0.1-0.7,0.2c-2.2,0.6-3,2.4-4.4,2.9c-1.6,0.7-3.8,0.8-6.8,1.4
		c-2.4,0.5-4.8,1.4-6.6,1.6c-0.4,0-0.7-0.2-1.2-0.1c-0.4,0-0.9,0.5-1.5,0.5c-0.3,0-0.4-0.2-0.6-0.2c-1.8,0-1.1,3.7-0.6,4.8
		c0.2,0.5,0.4,0.9,0.8,1c0.8,0.2,0.6-0.3,1.2-0.4c0.5-0.1,1.1,0.2,1.4,0.1c0.6-0.1,0.8-0.4,1.2-0.5c2-0.4,4.4-0.2,6.7-0.3
		c2.5-0.2,5.1-0.8,7-0.6c1.5,0.2,2.8,1.6,5.2,1.5c0,0,0,0,0,0c0.2,0,0.4,0,0.6,0L150.5,16.4z"/>
	<path class="st0" d="M159,15c-0.1,0.1-0.3,0.2-0.7,0.3h0l2.4-0.3c0.4-0.1,0.7-0.2,1-0.3c3.4-1.5,2.3-9.8-0.7-11.2
		c-0.7-0.3-1.9-0.3-3.1-0.1C160.9,6.8,161.1,12.2,159,15z"/>
	<path class="st0" d="M149.1,4.6c0.8-0.1,1.6-0.2,2.4-0.3c4.4,1,3,11.6,3,11.6s0.3,0,0.6,0c0.8-0.1,2.2-0.2,3.1-0.5
		c0.4-0.1,0.6-0.2,0.7-0.3c2.1-2.8,2-8.2-1.1-11.7c-0.6-0.6-1.2-1.2-1.9-1.7c-1.3-0.9-3-1.5-4.9-1.6c-0.1,0-0.1,0-0.2,0v0
		c-3.6-0.1-7.6,1.5-9.8,5.7l4.7-0.7C147,4.9,148.1,4.8,149.1,4.6z"/>
	<polygon class="st0" points="60,184.2 57.4,191.5 62.7,191.5 60.2,184.2 	"/>
	<path class="st0" d="M124.8,188.9c0.6-0.4,0.8-1.1,0.8-1.9c0-1.6-1.3-2.5-3.8-2.5H120v5h1.8C123.3,189.5,124.2,189.3,124.8,188.9z"
		/>
	<path class="st0" d="M181.3,131.4c0-0.1,0-0.2,0-0.3s0-0.1,0-0.3c0-0.1,0-0.2,0-0.3c0,0,0-0.2,0,0c-0.1-5.9-5.9-8.9-6.6-15.2
		c-0.5-4.3,2.6-8.9,1.9-13.9c-0.9-6.6-10.5-10.3-11.3-13.6c-1.4-6,0.1-10.6-3.3-14.3c-3-3.2-10.4-2.8-12.6-6.1
		c-3.1-4.3-1.1-8.7-6.5-12.2c-3.3-2.2-6.9-1.1-10.5-1.4c-1.1,3.2-1.8,6.7-2,11c3-2.2,2.6-6.4,3.4-5.9c2.6,1.9,1.7,8.2-1.7,15
		c4,2.7,7.6,5.8,10.9,9.3c0.3-0.2,0.6-0.3,0.7-0.2c0.5-1,3.6,1,3.2-0.9c1.7,0.7,2,2.8,3.5,3.7c-2.2,2.5-1,1.2-1.3,1.2
		c0,0.3-1.3,1.1-1.3,1.4c0,0-0.1,0.1-0.1,0.1c9,11.6,14.4,26,14.4,41.7c0,15-4.9,28.9-13.3,40.2c0.7,0.3,1.3,0.3,2.3,0.8
		c-0.3,0.2-0.7,0.7-0.3,0.9c-0.9,0.2-1.9,0.2-3.3,0c0,0,0,0,0,0c0.3,0.4,2.5,0.8,2.5,2c-1.5-1-1.5,0-3.1-0.9c0-0.1,0.1-0.3,0.1-0.5
		c-0.4,0.5-0.7,0.9-1.1,1.3c0.3-0.1,0.8-0.2,1,0c-0.1,0.3-0.4-0.1-0.9,0.4c0.1,0.4,0.6-0.4,0.6,0.2c-0.5,0.2-0.8,0.4-0.5,0.9
		c-0.6,0-0.9,0.1-1.2,0.3c-5.5-2.7-13.7-5-23.7-6.5c-0.1,0-0.3,0-0.4-0.1c-0.9-0.1-1.8-0.3-2.7-0.4c-0.1,0-0.2,0-0.3,0
		c-0.4,0-1.2-0.2-2.7-0.4c-0.5-0.1-0.9-0.1-1.5-0.2c-0.8,1-1.6-0.8-2.8,0.2c0,0.7,0.4,1.7,1.3,1.2c-0.1-0.4-1.1-0.4-0.6-1.1
		c0.3,0.2,0.8,0.4,1.4,0.5c-0.7,1.2,1.8,0.7,1.2,1.7c-2.2-0.3-2.7-0.4-4.3-0.6c0.7-0.4,0-0.3,0.1-1c-1.4-0.1-1.1,0-2.5-0.4
		c0.2-0.6-0.1-1-0.8-1.1c0,0-0.1,0-0.1,0c-2.3-0.2-4.5-0.3-6.9-0.4c-0.1,0-0.2,0-0.3,0c-3.6-0.2-7.3-0.2-11.1-0.2
		c-10.6,0-20.6,0.7-29.4,1.9c-6.5,0.9-12.4,2.1-17.4,3.5c-2.3,0.6-4.3,1.3-6.2,2c-8.9-11.4-14.2-25.6-14.2-41
		c0-4.9,0.5-9.6,1.5-14.2c3.2-19.3,14.6-35.9,30.6-46.3c0.5-1.3,1.7-2.9,2.8-3.3c0.2,0.7,0.6,0.9,1.1,0.9c0.5-0.3,0.9-0.5,1.4-0.8
		c0.1-1.2,2.2-2.5,3.9-1.9c0.2-0.1,0.5-0.2,0.7-0.3c0.4-0.8,0.1-1.9-1.4-1.1c0.5-1.2,3.5-1.1,4.2-2.3c0.4,1.5-2.4,1.2-2.7,2.3
		c0.7,1.3,2.1-0.3,2.8-0.1c5.1-2,10.4-3.4,16-4.1c0.4-1.5,0.9-2.8,1.5-4.1c1.3-2.7,3.4-5.3,6.4-7.5c3.9-2.4,5-3.4,6.3-4.4
		c0.3-0.3,1.6-1.4,3.6-2.8c0,0,0,0,0,0c-0.3-0.3-4.8-4.4-9.2-4.4c-4.5,0-8.9,4.1-9.2,4.4c-5.5,4.6-13-2.7-19.8,0
		c-4,1.6-5.2,7.3-8.8,9.4c-4.8,2.8-9.9-0.4-14.4,2.6c-5.4,3.6-3.5,7.9-6.5,12.2c-2.3,3.2-9.6,2.8-12.6,6.1
		c-3.4,3.7-1.9,8.3-3.3,14.3c-0.3,1.5-2.4,3-4.7,4.9c-0.5,1.1-0.6,2,0.3,2.4c0.8,0.8-1.2,0.7-0.2,1.5c-1,0.7-1.6-0.5-0.8-1.4
		c-1.9,0.8-3.7,1.7-5.3,4c-0.3,0.7-0.5,1.4-0.6,2.2c-0.7,4.9,2.5,9.5,1.9,13.9c-0.8,6.2-6.5,9.3-6.6,15.2c0-0.1,0,0.1,0,0
		c0,0.1,0,0.2,0,0.3c0,0.1,0,0.2,0,0.3s0,0.1,0,0.3c0,0.1,0,0.2,0,0.3c0,0,0,0.2,0,0.1c0.1,5.6,5.3,8.6,6.5,14.2
		c2.1-0.7,0.9,0.4,0.2,1.7c0,0.1,0,0.3,0,0.4c0.5,0.2,2.4,1,0.5,1.1c0.3,0.4,0.9-0.1,1.4-0.3c-0.8-1.5,1.1-0.8,2.7-0.9
		c0.4,0.8-1.2,1-0.5,1.9c-1.1,0.5,0.2-1-0.9-1.6c-0.7,1.1-2.1,2.6-3.6,3c-0.7,3-2,6.2-1.5,9.5c0.9,6.6,10.5,10.3,11.3,13.7
		c1.4,6-0.1,10.6,3.3,14.3c0.6,0.6,1.3,1.1,2.1,1.5c0-0.6-0.1-1.2,0-1.6c1.3,0.6,2.2,2.1,1.4-0.6c1,1.7,3.2-0.1,4.2,2.3
		c-1.4-0.5-1.4-0.5-2.8,0c1.9,1.2,3,1.4,4.7,0c0.6,0.7,0.7,1.7,0.7,2.6c1,0.4,1.8,1,2.4,1.8c3.1,4.3,1.2,8.7,6.5,12.2
		c4.5,3,9.6-0.2,14.4,2.6c3.6,2.1,4.8,7.8,8.8,9.4c6.8,2.7,14.3-4.6,19.8,0c0.3,0.3,4.8,4.4,9.2,4.4c4.4,0,8.9-4.2,9.2-4.4
		c5.5-4.6,13,2.7,19.8,0c4-1.6,5.1-7.3,8.8-9.4c4-2.3,8.1-0.5,12-1.5c0-0.3-0.4-0.3-0.2-0.8c0.3,0,0.7,0,1,0
		c-0.9-0.1-0.5-0.8,0.2-0.9c0.3,0.1-0.4,0.2,0,0.6c0.6,0-0.2-0.5,0.7-0.3c-0.1,0.3,0,0.5,0.5,0.5c0,0,0.1,0,0.1,0
		c5.4-3.6,3.5-7.9,6.5-12.2c2.3-3.2,9.6-2.8,12.6-6.1c3.4-3.7,1.9-8.3,3.3-14.3c0.8-3.3,10.4-7.1,11.3-13.7
		c0.5-4.2-1.6-8.1-1.9-11.8c-0.2,0.2-0.4,0.4-0.7,0.5c-0.1-0.4,0.5-1.5,0.7-2.4c0,0,0-0.1,0-0.1c0-0.2,0-0.3,0.1-0.5
		c0-0.5-0.2-0.9-0.9-1c-0.7-0.2,0.5-0.4-0.3-0.6c0.4-0.4,1.1,0.1,0.8,0.4c0.3-0.2,0.5-0.3,0.8-0.5c1.6-4.9,6-7.9,6.2-13.1
		c0,0.1,0-0.1,0-0.1C181.3,131.7,181.3,131.6,181.3,131.4z M14.5,125.6c-0.7,1.4-0.7-1.5-1.1-0.3c-1.1-0.1,0.8-3.1,0.9-4.5
		C15.3,121.1,13.9,125.3,14.5,125.6z M69.8,199.8h-7.3v-2.2h2.3l-1.4-4h-6.7l-1.4,4h2.3v2.2h-7.3v-2.2h2.2l5.1-13.4h-2.3v-2h9.5v2
		h-2.3l5.2,13.4h2.1V199.8z M100.1,186.6l-3.1,4.1c0,0-1.5-2.2-3.8-4.3c0.5-2.8,1.7-3.5,3.5-5.2C99.5,182.1,100.1,186.6,100.1,186.6
		z M95.1,197.9c-2.4-0.7-4.6-0.7-7-0.2c-0.7-4.6-0.4-6.2,3.6-9.1C95.7,191.2,96.5,193.5,95.1,197.9z M92,175.1
		c1.4,0.6,3.2,3.9,3.2,3.9c-1.5,1.6-1.3,1.9-3.1,4.5c-0.3,0.4-2.2-3.1-3-4.1C89.6,177.7,90.8,176.3,92,175.1z M86.8,181.1
		c1.7,1.7,3,2.4,3.5,5.2c-2.2,2.1-3.8,4.3-3.8,4.3l-3.1-4.1C83.4,186.6,84,182.1,86.8,181.1z M80.1,201.4
		c-2.6-3.8-1.9-10.6,2.4-12.2c1.2,1.4,1.9,1.9,2.5,3.3c0.4,0.9,0.3,3.5,0.6,5.7C82.9,198.4,82.7,201.1,80.1,201.4z M92.3,207.4v4.1
		c0,0.3-0.3,0.6-0.8,0.6c-0.4,0-0.8-0.3-0.8-0.6v-6.1c-0.5-2.1-1.5,0.5-1.6,1.8c-2.9,0.2-3.4-0.5-5.6-2.4c1.7-7.1,14.1-6.6,16,0
		C95.8,207,95.2,207.4,92.3,207.4z M103.4,201.4c-2.6-0.3-2.8-3-5.6-3.2c0.3-2.2,0.2-4.8,0.6-5.7c0.7-1.5,1.3-1.9,2.6-3.3
		C105.2,190.8,106,197.6,103.4,201.4z M128.9,197.1c-0.4,0.7-1,1.2-1.7,1.6c-0.7,0.4-1.5,0.6-2.4,0.8c-0.9,0.1-2,0.2-3.5,0.2h-6.6
		v-2.2h2.4v-13h-2.4v-2.2h6.5c1.8,0,3.1,0.1,4,0.3c0.9,0.2,1.7,0.7,2.4,1.4c0.7,0.8,1,1.7,1,2.7c0,0.8-0.2,1.5-0.6,2.2
		c-0.4,0.6-1,1.1-1.8,1.5c1.1,0.3,1.9,0.9,2.5,1.7c0.6,0.8,0.9,1.7,0.9,2.6C129.5,195.6,129.3,196.4,128.9,197.1z M165.1,101.1
		c-0.1-1.6,1,1.3,0.8,0.1c0.8-0.1-0.1,1.8,0.9,1.8c-0.1,0.5-0.4,0-0.5,0.9c0.9-0.2,0.3,0.8,0.7,2.2
		C166.3,106,165.6,101.3,165.1,101.1z"/>
	<path class="st0" d="M124.4,191.9c-0.6-0.2-1.6-0.2-2.7-0.2H120v5.8h1.1c1.5,0,2.5-0.1,3.2-0.2c0.7-0.1,1.2-0.4,1.6-0.9
		c0.4-0.5,0.6-1.1,0.6-1.8c0-0.7-0.2-1.2-0.6-1.7C125.6,192.4,125,192.1,124.4,191.9z"/>
	<path class="st0" d="M66.7,81.2c-8.5,3.4-15.9,9.6-20.1,17.7c3.7-2.5,6-4.8,14-4.8C62.1,88.2,63.6,85.5,66.7,81.2z"/>
</g>
</svg>
